inDegrees=no
num_controls=7
num_derivatives=13
num_iterations=71
num_multipliers=7
num_parameters=0
num_slacks=7
num_states=26
objective=0.444751
objective_accelerations=0.056699
objective_balance=0.002919
objective_effort=0.022332
objective_height=0.357377
objective_ligament=0.005423
solver_duration=1074.580417
status=Solve_Succeeded
success=true
DataType=double
version=3
OpenSimVersion=4.5
endheader
time	/jointset/ground_pelvis/pelvis_tilt/value	/jointset/ground_pelvis/pelvis_tx/value	/jointset/ground_pelvis/pelvis_ty/value	/jointset/hip_l/hip_flexion_l/value	/jointset/hip_l/hip_adduction_l/value	/jointset/hip_l/hip_rotation_l/value	/jointset/back/lumbar_extension/value	/jointset/patellofemoral_l/patellar_flexion_l/value	/jointset/knee_l/knee_flexion_l/value	/jointset/knee_l/knee_adduction_l/value	/jointset/knee_l/knee_rotation_l/value	/jointset/ankle_l/ankle_angle_l/value	/jointset/subtalar_l/subtalar_angle_l/value	/jointset/ground_pelvis/pelvis_tilt/speed	/jointset/ground_pelvis/pelvis_tx/speed	/jointset/ground_pelvis/pelvis_ty/speed	/jointset/hip_l/hip_flexion_l/speed	/jointset/hip_l/hip_adduction_l/speed	/jointset/hip_l/hip_rotation_l/speed	/jointset/back/lumbar_extension/speed	/jointset/patellofemoral_l/patellar_flexion_l/speed	/jointset/knee_l/knee_flexion_l/speed	/jointset/knee_l/knee_adduction_l/speed	/jointset/knee_l/knee_rotation_l/speed	/jointset/ankle_l/ankle_angle_l/speed	/jointset/subtalar_l/subtalar_angle_l/speed	/forceset/tau_hip_flexion_l	/forceset/tau_hip_adduction_l	/forceset/tau_hip_rotation_l	/forceset/tau_knee_flexion_l	/forceset/tau_ankle_angle_l	/forceset/tau_subtalar_angle_l	/forceset/tau_lumbar_extension	lambda_cid13_p0	lambda_cid13_p1	lambda_cid13_p2	lambda_cid13_p3	lambda_cid13_p4	lambda_cid13_p5	lambda_cid14_p0	/jointset/ground_pelvis/pelvis_tilt/accel	/jointset/ground_pelvis/pelvis_tx/accel	/jointset/ground_pelvis/pelvis_ty/accel	/jointset/hip_l/hip_flexion_l/accel	/jointset/hip_l/hip_adduction_l/accel	/jointset/hip_l/hip_rotation_l/accel	/jointset/back/lumbar_extension/accel	/jointset/patellofemoral_l/patellar_flexion_l/accel	/jointset/knee_l/knee_flexion_l/accel	/jointset/knee_l/knee_adduction_l/accel	/jointset/knee_l/knee_rotation_l/accel	/jointset/ankle_l/ankle_angle_l/accel	/jointset/subtalar_l/subtalar_angle_l/accel	gamma_cid13_p0	gamma_cid13_p1	gamma_cid13_p2	gamma_cid13_p3	gamma_cid13_p4	gamma_cid13_p5	gamma_cid14_p0
1	-0.5072756403748119	-0.05334267626323414	0.5769828955290519	1.772973342527653	-0.4723673581541936	0.02002694962156144	-0.2616124482642405	1.426897857894225	1.426897857894201	-0.07187560270218928	-0.1745089294136145	0.2884996737215283	0.02531404219308944	-0.01357934532517243	0.01223250818289998	0.01139600670212255	-0.03149131513792239	-0.001636812767695103	-0.01220712717781866	0.001127767467478252	-0.02439097751092861	-0.02439097751092876	-0.002062297081654169	0.001653675666061121	0.01770016878577659	0.009399605704139351	-0.3144180071309243	0.04050107144261558	0.0008958656822948172	-0.3177629629454243	0.002544835839399429	0.0147664156988858	0.2727850420142539	-39.14007008458356	1.237105832733076	-1.443531469511689	11.75595350896949	-642.3355555598259	-37.46661431664251	-0.6847813346656139	1.410230442739375	0.1434176047798042	1.972891890786217	-6.618653901045009	0.01122541968226684	-2.301793805746744	-0.001865955947924697	-5.5060593955152	-5.506059395515202	-0.6726854474904952	0.07107519575397044	-0.99624642012165	-0.5901913730527845	-8.904929030196857e-10	1.013450194940048e-08	6.788181668105869e-09	3.540848944232649e-11	-6.944789701761672e-09	6.30735521128151e-08	-6.820876331468502e-09
1.01	-0.5073415611503301	-0.0532131883096623	0.5771953275653796	1.772328562380913	-0.472382475737166	0.01978852035642877	-0.2616004660817112	1.426378929487879	1.426378929487971	-0.07192740734392795	-0.1744880068401932	0.2886270254433944	0.02537960421792604	0.0004173689359570679	0.01367085127464215	0.03108405602511175	-0.09747264490979368	-0.001413111212099581	-0.03549101442311802	0.001255168916212061	-0.0793814859561707	-0.07938148595617102	-0.008322882153816441	0.002470382240325328	0.007761104834715285	0.003670133926239915	-0.3143345626825618	0.040612258668614	0.0008662603896420453	-0.3174228771731402	0.002311937001948125	0.01480715796896168	0.2727254056512021	-39.19447174938708	1.223968729718099	-1.435762345972435	11.68843918314549	-642.1011179691768	-37.45769936057915	-0.6915596609738404	1.397716457724633	0.14490753934499	1.965805872745308	-6.589064731164668	0.02397945226397695	-2.343543028999092	0.01801817756195931	-5.493559467417794	-5.493559467417856	-0.6063927716588179	0.07791340121956797	-0.9940982482398717	-0.570728791189238	-1.268473502328515e-08	-1.112841450697024e-08	4.922480263175924e-08	-2.146368007223459e-09	-1.937225541272912e-08	1.111204206878814e-07	-2.200219220723074e-08
1.02	-0.5072668498752596	-0.05306914394957896	0.5776044489788759	1.771023730493272	-0.4723961489188299	0.01931688084990262	-0.2615876148882271	1.425310493417396	1.425310493417598	-0.07204254738322802	-0.1744607281985168	0.2886547141526203	0.02538659078277743	0.01454706479410187	0.0151437894851945	0.05073388213576907	-0.1635016633179222	-0.001347932505921666	-0.05884917547152232	0.001301569656101099	-0.1342925103369719	-0.1342925103369724	-0.01472937660916925	0.002924889332856941	-0.002232433742001536	-0.002315486292890399	-0.3142511182341468	0.04072344589478578	0.0008366550975217094	-0.3170827914008373	0.002079038164544319	0.01484790023930068	0.2726657692881748	-39.2556443089404	1.212057241231904	-1.428234352609937	11.65278738538371	-641.9640275195472	-37.42804534644381	-0.7057425969198688	1.436826762142339	0.1503366285419053	1.965247248319841	-6.628191628296446	-0.02047915020141593	-2.316648566367865	-0.01806609771660351	-5.490162582626999	-5.490162582626994	-0.7018673241286928	-0.001364700592850218	-1.007141345252673	-0.641421061299128	-1.774332470252255e-08	-1.479043333281266e-08	8.776172635412069e-08	-4.891120738974042e-10	-2.765437087192994e-08	1.49538831067701e-07	-3.094607211088002e-08
1.03	-0.5070501380951434	-0.05291018447567986	0.5782098073287417	1.769058551878802	-0.4724095673476356	0.01861148847895732	-0.2615747919098083	1.423693420694667	1.423693420694875	-0.07222205351798661	-0.1744300686637359	0.2885821912645485	0.02533299372967255	0.02882196652609127	0.01665512916305322	0.07032456300277273	-0.2295246579549643	-0.001321109804919605	-0.08222212588069321	0.001240016413140947	-0.1891012138956333	-0.1891012138956348	-0.02115050057246465	0.003213951315198213	-0.01228086838217794	-0.008388707515794361	-0.3138318435541447	0.04092941493310816	0.0007769012158560097	-0.3166123162626173	0.002012695245118851	0.01492910315741875	0.2723591981328154	-39.24132171723352	1.161116865650189	-1.405074152636432	11.533395143424	-641.4987192206941	-37.43978940530597	-0.727617212083256	1.426819434533309	0.1525864695901366	1.953987551918352	-6.587947544426082	0.01644799746697964	-2.346567309732416	-0.00365137890908734	-5.473093176376935	-5.473093176377167	-0.6090491515375257	0.04511331994141568	-1.005004121048961	-0.5880020963817251	-2.273318323440249e-08	-1.827285116242509e-08	1.262588572474893e-07	1.207317659734711e-09	-3.589418683876576e-08	1.878589918740997e-07	-3.982630470869138e-08
1.04	-0.5066898777865511	-0.0527359008385663	0.5790106742964837	1.76643342448533	-0.4724222805459925	0.01767257679761289	-0.2615632747520754	1.421528887149575	1.421528887149801	-0.0724651337361851	-0.1743963041746335	0.2884089221105454	0.02521911857561926	0.04325677049034372	0.01820862212808685	0.08983560571093697	-0.2954914191127265	-0.001206886415284895	-0.1055530375514993	0.00104040551728155	-0.24378467480994	-0.2437846748099425	-0.027444193300071	0.003545880189276701	-0.02238168692830427	-0.01437110648253367	-0.3134125688743046	0.04113538397139742	0.0007171473343786126	-0.3161418411243803	0.001946352325713925	0.01501030607550104	0.272052626977289	-39.23381911015674	1.111222887386951	-1.381911995404873	11.44538089525898	-641.13133626529	-37.43140494832161	-0.7575209137466749	1.468807208594858	0.1587672859769465	1.949319616551956	-6.616944932440444	-0.002999012475026	-2.308240818695012	-0.04567762829610609	-5.465114053756036	-5.46511405375604	-0.6763810769909629	0.007208677754338167	-1.017618126442578	-0.6232566100663343	-3.043063972190774e-08	-2.624121057998633e-08	1.72686641691329e-07	2.975295815504185e-09	-4.600797756440816e-08	2.327082189478784e-07	-5.151329679666329e-08
